<svg xmlns="http://www.w3.org/2000/svg"  viewBox="0 0 100 100"><path d="M83.463,96.064c-2.254,0-4.372-0.877-5.964-2.47L76.904,93H21.5C15.71,93,11,88.29,11,82.5v-61C11,15.71,15.71,11,21.5,11 h1.683C24.125,5.886,28.617,2,34,2c0.474,0,0.954,0.031,1.427,0.091c4.728,0.607,8.448,4.274,9.358,8.909h14.397 C60.125,5.886,64.617,2,70,2c0.474,0,0.954,0.031,1.427,0.091c4.728,0.607,8.448,4.274,9.358,8.909H82.5C88.29,11,93,15.71,93,21.5 v49.487l3.556,3.556c3.285,3.289,3.285,8.637,0.001,11.923l-7.131,7.13C87.836,95.188,85.718,96.064,83.463,96.064z" opacity=".35"/><path fill="#f2f2f2" d="M81.463,94.064c-2.254,0-4.372-0.877-5.964-2.47L74.904,91H19.5C13.71,91,9,86.29,9,80.5v-61 C9,13.71,13.71,9,19.5,9h1.683C22.125,3.886,26.617,0,32,0c0.474,0,0.954,0.031,1.427,0.091C38.154,0.698,41.875,4.366,42.785,9 h14.397C58.125,3.886,62.617,0,68,0c0.474,0,0.954,0.031,1.427,0.091C74.154,0.698,77.875,4.366,78.785,9H80.5 C86.29,9,91,13.71,91,19.5v49.487l3.556,3.556c3.285,3.289,3.285,8.637,0.001,11.923l-7.131,7.13 C85.836,93.188,83.718,94.064,81.463,94.064z"/><path fill="#d9eeff" d="M79.5,84.5h-59c-2.761,0-5-2.239-5-5v-59c0-2.761,2.239-5,5-5h59c2.761,0,5,2.239,5,5v59 C84.5,82.261,82.261,84.5,79.5,84.5z"/><path fill="#ff7575" d="M27,15.5h-6.5c-2.761,0-5,2.702-5,6.034V33h69V21.534c0-3.333-2.239-6.034-5-6.034H36.426"/><rect width="26" height="3" x="37" y="14" fill="#40396e"/><rect width="8" height="8" x="34" y="42" fill="#70bfff"/><rect width="8" height="8" x="46" y="42" fill="#70bfff"/><rect width="8" height="8" x="58" y="42" fill="#70bfff"/><rect width="8" height="8" x="70" y="42" fill="#70bfff"/><rect width="8" height="8" x="22" y="54" fill="#70bfff"/><rect width="8" height="8" x="34" y="54" fill="#70bfff"/><rect width="8" height="8" x="70" y="54" fill="#70bfff"/><rect width="8" height="8" x="22" y="66" fill="#70bfff"/><rect width="8" height="8" x="34" y="66" fill="#70bfff"/><rect width="8" height="8" x="46" y="66" fill="#70bfff"/><rect width="8" height="8" x="58" y="66" fill="#70bfff"/><path fill="#40396e" d="M29,15l0-3.83c0-1.624,1.216-3.08,2.838-3.165C33.568,7.913,35,9.289,35,11v4c0,1.105,0.895,2,2,2h1 l0-5.791c0-3.049-2.186-5.77-5.21-6.158C29.131,4.581,26,7.432,26,11v6h1C28.105,17,29,16.105,29,15z"/><path fill="#40396e" d="M65,15l0-3.83c0-1.624,1.216-3.08,2.838-3.165C69.568,7.913,71,9.289,71,11v4c0,1.105,0.895,2,2,2h1 v-5.791c0-3.049-2.186-5.77-5.21-6.158C65.131,4.581,62,7.432,62,11v6h1C64.105,17,65,16.105,65,15z"/><circle cx="32" cy="24" r="5" fill="#40396e"/><circle cx="68" cy="24" r="5" fill="#40396e"/><path fill="#d9eeff" d="M32,27c-1.657,0-3-1.343-3-3V11c0-1.657,1.343-3,3-3s3,1.343,3,3v13C35,25.657,33.657,27,32,27z"/><path fill="#d9eeff" d="M68,27c-1.657,0-3-1.343-3-3V11c0-1.657,1.343-3,3-3s3,1.343,3,3v13C71,25.657,69.657,27,68,27z"/><rect width="8" height="8" x="46" y="54" fill="#70bfff"/><rect width="10.969" height="36.57" x="62.249" y="46.493" fill="#f9b84f" transform="rotate(-45.001 67.735 64.78)"/><polygon fill="#fedeb3" points="48.454,45.5 58.696,47.986 50.94,55.742"/><polygon fill="#40396e" points="54.361,46.933 48.454,45.5 49.888,51.406"/><rect width="11.014" height="4" x="73.676" y="74.229" fill="#f2f2f2" transform="rotate(-45.001 79.185 76.231)"/><path fill="#f4665c" d="M75.638,80.455l7.772-7.772l5.912,5.912l-7.77,7.77c0,0,0,0,0,0L75.638,80.455z"/><path fill="#40396e" d="M81.463,89.064c-0.879,0-1.758-0.334-2.427-1.004L76.976,86H19.5c-3.032,0-5.5-2.467-5.5-5.5v-61 c0-3.033,2.468-5.5,5.5-5.5h7.639c0.828,0,1.5,0.671,1.5,1.5s-0.672,1.5-1.5,1.5H19.5c-1.379,0-2.5,1.122-2.5,2.5v61 c0,1.378,1.121,2.5,2.5,2.5h58.097c0.397,0,0.779,0.158,1.061,0.439l2.5,2.5c0.17,0.17,0.442,0.168,0.612,0l7.129-7.129 c0.168-0.168,0.168-0.443-0.001-0.612l-5.458-5.458C83.158,72.459,83,72.078,83,71.68V19.5c0-1.378-1.121-2.5-2.5-2.5h-7.819 c-0.828,0-1.5-0.671-1.5-1.5s0.672-1.5,1.5-1.5H80.5c3.032,0,5.5,2.467,5.5,5.5v51.558l5.02,5.02c1.338,1.339,1.337,3.516,0,4.854 l-7.129,7.129C83.222,88.73,82.343,89.064,81.463,89.064z"/></svg>