<?xml version="1.0" encoding="UTF-8"?>
<svg xmlns="http://www.w3.org/2000/svg" xmlns:xlink="http://www.w3.org/1999/xlink" viewBox="0 0 30 30">
<g id="surface60284963">
<path style=" stroke:none;fill-rule:nonzero;fill:rgb(97.647059%,9.411765%,50.196081%);fill-opacity:1;" d="M 9.546875 4 C 5.929688 4 3 6.929688 3 10.542969 C 3 16.835938 10.300781 22.851562 13.707031 25.527344 C 13.710938 25.53125 13.714844 25.53125 13.71875 25.535156 C 13.742188 25.554688 13.773438 25.578125 13.796875 25.597656 L 13.796875 25.59375 C 14.144531 25.855469 14.566406 26 15 26 C 15.433594 26 15.855469 25.859375 16.203125 25.59375 L 16.203125 25.597656 C 16.210938 25.59375 16.21875 25.585938 16.226562 25.578125 C 16.230469 25.574219 16.238281 25.570312 16.246094 25.566406 C 16.25 25.5625 16.257812 25.554688 16.265625 25.546875 C 19.664062 22.882812 27 16.851562 27 10.542969 C 27 6.929688 24.070312 4 20.457031 4 C 17 4 15 7 15 7 C 15 7 13 4 9.546875 4 Z M 9.546875 4 "/>
</g>
</svg>
