<svg fill="#000000" xmlns="http://www.w3.org/2000/svg"  viewBox="0 0 16 16" fill-rule="evenodd" clip-rule="evenodd"><path d="M 6.5 2.75 C 6.308 2.75 6.1167031 2.8242031 5.9707031 2.9707031 L 1.4707031 7.4707031 C 1.4014266 7.5399796 1.3446764 7.6228988 1.3066406 7.7148438 C 1.2689446 7.8062043 1.25 7.9027333 1.25 8 C 1.25 8.0972667 1.2689446 8.1937957 1.3066406 8.2851562 C 1.3446764 8.3771012 1.4014266 8.4600204 1.4707031 8.5292969 L 5.9707031 13.029297 C 6.2627031 13.322297 6.7372969 13.322297 7.0292969 13.029297 C 7.3222969 12.737297 7.3222969 12.262703 7.0292969 11.970703 L 3.8105469 8.75 L 14 8.75 C 14.414 8.75 14.75 8.414 14.75 8 C 14.75 7.586 14.414 7.25 14 7.25 L 3.8105469 7.25 L 7.0292969 4.0292969 C 7.3222969 3.7372969 7.3222969 3.2627031 7.0292969 2.9707031 C 6.8832969 2.8242031 6.692 2.75 6.5 2.75 z"/></svg>