<?xml version="1.0" encoding="UTF-8"?>
<svg xmlns="http://www.w3.org/2000/svg" xmlns:xlink="http://www.w3.org/1999/xlink" viewBox="0 0 30 30">
<g id="surface58390353">
<path style=" stroke:none;fill-rule:nonzero;fill:rgb(40.000001%,40.000001%,40.000001%);fill-opacity:1;" d="M 9.546875 3 C 5.390625 3 2 6.390625 2 10.542969 C 2 14.28125 4.902344 18.085938 7.660156 21.117188 C 10.417969 24.152344 13.171875 26.367188 13.171875 26.367188 C 13.179688 26.375 13.1875 26.382812 13.199219 26.386719 C 13.515625 26.628906 13.957031 26.683594 14.371094 26.785156 C 14.546875 26.925781 14.769531 27.003906 15 27 C 15.230469 27.003906 15.453125 26.925781 15.628906 26.785156 C 16.042969 26.683594 16.484375 26.628906 16.800781 26.386719 C 16.8125 26.382812 16.820312 26.375 16.828125 26.367188 C 16.828125 26.367188 19.582031 24.152344 22.339844 21.117188 C 25.097656 18.085938 28 14.28125 28 10.542969 C 28 6.390625 24.609375 3 20.453125 3 C 17.449219 3 15.832031 4.589844 15 5.566406 C 14.167969 4.589844 12.550781 3 9.546875 3 Z M 9.546875 5 C 12.371094 5 14.070312 7.429688 14.125 7.511719 C 14.289062 7.796875 14.582031 7.980469 14.910156 8.007812 C 14.941406 8.011719 14.972656 8.011719 15.003906 8.011719 C 15.007812 8.011719 15.015625 8.011719 15.019531 8.011719 C 15.027344 8.011719 15.035156 8.011719 15.042969 8.011719 C 15.070312 8.007812 15.09375 8.007812 15.117188 8.003906 C 15.433594 7.96875 15.710938 7.785156 15.871094 7.515625 C 15.925781 7.433594 17.625 5 20.453125 5 C 23.53125 5 26 7.46875 26 10.546875 C 26 13.148438 23.5 16.871094 20.859375 19.773438 C 18.226562 22.667969 15.609375 24.78125 15.589844 24.796875 C 15.414062 24.925781 15.21875 25 15 25 C 14.78125 25 14.585938 24.925781 14.410156 24.796875 C 14.390625 24.78125 11.773438 22.667969 9.140625 19.773438 C 6.5 16.871094 4 13.148438 4 10.546875 C 4 7.46875 6.46875 5 9.546875 5 Z M 9.546875 5 "/>
</g>
</svg>
