<?xml version="1.0" encoding="UTF-8"?>
<svg xmlns="http://www.w3.org/2000/svg" xmlns:xlink="http://www.w3.org/1999/xlink" viewBox="0 0 32 32">
<g id="surface6343694">
<path style=" stroke:none;fill-rule:nonzero;fill:rgb(40.000001%,40.000001%,40.000001%);fill-opacity:1;" d="M 10.621094 4.765625 C 6.828125 4.765625 3.617188 7.324219 2.632812 10.816406 C 2.097656 12.707031 2.257812 14.738281 3.078125 16.527344 C 4.242188 19.4375 6.332031 22.0625 8.671875 23.996094 C 11.019531 25.941406 13.605469 27.234375 15.992188 27.234375 C 18.382812 27.234375 20.988281 25.929688 23.347656 23.976562 C 25.710938 22.019531 27.8125 19.371094 28.953125 16.433594 C 29.347656 15.414062 29.65625 14.253906 29.675781 13.046875 C 29.6875 12.472656 29.628906 11.890625 29.476562 11.316406 C 28.667969 7.574219 25.335938 4.769531 21.363281 4.769531 C 19.277344 4.769531 17.449219 5.648438 15.992188 6.925781 C 14.535156 5.648438 12.707031 4.769531 10.621094 4.769531 Z M 10.621094 6.765625 C 12.460938 6.765625 14.101562 7.554688 15.253906 8.8125 C 15.445312 9.015625 15.710938 9.132812 15.992188 9.132812 C 16.273438 9.132812 16.539062 9.015625 16.730469 8.8125 C 17.886719 7.554688 19.523438 6.765625 21.363281 6.765625 C 24.402344 6.765625 26.921875 8.90625 27.527344 11.753906 C 27.53125 11.769531 27.535156 11.785156 27.542969 11.804688 C 27.640625 12.179688 27.683594 12.585938 27.679688 13.011719 C 27.664062 13.894531 27.421875 14.851562 27.089844 15.707031 C 26.101562 18.246094 24.195312 20.675781 22.074219 22.433594 C 19.953125 24.191406 17.605469 25.234375 15.992188 25.234375 C 14.382812 25.234375 12.058594 24.203125 9.949219 22.457031 C 7.835938 20.710938 5.929688 18.292969 4.921875 15.761719 C 4.914062 15.742188 4.90625 15.726562 4.898438 15.710938 C 4.273438 14.355469 4.152344 12.796875 4.558594 11.359375 C 5.304688 8.710938 7.722656 6.769531 10.621094 6.769531 Z M 10.621094 6.765625 "/>
</g>
</svg>
