<svg fill="#737373" xmlns="http://www.w3.org/2000/svg"  viewBox="0 0 24 24"><path d="M 17.90625 1.0039062 C 17.808828 1.013125 17.710938 1.0376719 17.617188 1.0761719 C 17.243187 1.2311719 17 1.596 17 2 L 17 4 L 4 4 C 2.9069372 4 2 4.9069372 2 6 L 2 11 A 1.0001 1.0001 0 1 0 4 11 L 4 6 L 17 6 L 17 8 C 17 8.404 17.243188 8.7688281 17.617188 8.9238281 C 17.741187 8.9748281 17.871 9 18 9 C 18.26 9 18.516031 8.8980312 18.707031 8.7070312 L 21.707031 5.7070312 C 22.098031 5.3160312 22.098031 4.6839687 21.707031 4.2929688 L 18.707031 1.2929688 C 18.492531 1.0784687 18.198516 0.97625 17.90625 1.0039062 z M 20.984375 11.986328 A 1.0001 1.0001 0 0 0 20 13 L 20 18 L 7 18 L 7 16 C 7 15.596 6.7568125 15.231172 6.3828125 15.076172 C 6.2588125 15.025172 6.129 15 6 15 C 5.74 15 5.4839687 15.101969 5.2929688 15.292969 L 2.2929688 18.292969 C 1.9019687 18.683969 1.9019687 19.317031 2.2929688 19.707031 L 5.2929688 22.707031 C 5.5789687 22.993031 6.0078125 23.077828 6.3828125 22.923828 C 6.7568125 22.768828 7 22.405 7 22 L 7 20 L 20 20 C 21.093063 20 22 19.093063 22 18 L 22 13 A 1.0001 1.0001 0 0 0 20.984375 11.986328 z"/></svg>