<?xml version="1.0" encoding="UTF-8"?>
<svg xmlns="http://www.w3.org/2000/svg" xmlns:xlink="http://www.w3.org/1999/xlink" viewBox="0 0 32 32">
<g id="surface6599675">
<path style=" stroke:none;fill-rule:nonzero;fill:rgb(40.000001%,40.000001%,40.000001%);fill-opacity:1;" d="M 16 2.585938 L 11.292969 7.292969 L 12.707031 8.707031 L 15 6.414062 L 15 21 L 17 21 L 17 6.414062 L 19.292969 8.707031 L 20.707031 7.292969 Z M 9 11 C 7.355469 11 6 12.355469 6 14 L 6 26 C 6 27.644531 7.355469 29 9 29 L 23 29 C 24.644531 29 26 27.644531 26 26 L 26 14 C 26 12.355469 24.644531 11 23 11 L 20 11 L 20 13 L 23 13 C 23.566406 13 24 13.433594 24 14 L 24 26 C 24 26.566406 23.566406 27 23 27 L 9 27 C 8.433594 27 8 26.566406 8 26 L 8 14 C 8 13.433594 8.433594 13 9 13 L 12 13 L 12 11 Z M 9 11 "/>
</g>
</svg>
